<?xml version="1.0" encoding="iso-8859-1"?>
<!-- Generator: Adobe Illustrator 16.0.0, SVG Export Plug-In . SVG Version: 6.00 Build 0)  -->
<!DOCTYPE svg PUBLIC "-//W3C//DTD SVG 1.1//EN" "http://www.w3.org/Graphics/SVG/1.1/DTD/svg11.dtd">
<svg version="1.1" id="Layer_1" xmlns="http://www.w3.org/2000/svg" xmlns:xlink="http://www.w3.org/1999/xlink" x="0px" y="0px"
	 width="512px" height="512px" viewBox="0 0 512 512" style="enable-background:new 0 0 512 512;" xml:space="preserve">
<g id="Layer_2">
	<rect y="0" style="display:none;fill:#02EF00;stroke:#000000;stroke-miterlimit:10;" width="512" height="512"/>
	<g style="display:none;">
		<path style="display:inline;opacity:0.4;fill:#FFFFFF;enable-background:new    ;" d="M257.021,509.992
			C116.968,509.992,3.02,396.055,3.02,256.004c0-140.052,113.948-253.99,254.001-253.99C397.064,2.014,511,115.952,511,256.004
			C511,396.055,397.064,509.992,257.021,509.992z"/>
		<path style="display:inline;fill:#FFFFFF;" d="M402.188,260.961v95.416h-55.311v-89.016c0-22.354-7.988-37.624-28.006-37.624
			c-15.277,0-24.375,10.282-28.383,20.228c-1.451,3.558-1.828,8.493-1.828,13.49v92.922h-55.335c0,0,0.752-150.773,0-166.384h55.335
			v23.573c-0.102,0.188-0.275,0.364-0.376,0.552h0.376v-0.552c7.367-11.313,20.464-27.478,49.852-27.478
			C374.908,186.09,402.188,209.861,402.188,260.961L402.188,260.961z M175.462,109.785c-18.94,0-31.314,12.426-31.314,28.745
			c0,15.97,12.027,28.756,30.587,28.756h0.351c19.313,0,31.288-12.786,31.288-28.756
			C206.023,122.211,194.399,109.785,175.462,109.785L175.462,109.785z M147.427,356.377h55.315V189.993h-55.315V356.377z"/>
	</g>
	<path style="opacity:0.1;fill:#FFFFFF;enable-background:new    ;" d="M256.266,511.674
		c-141.028,0-255.763-114.723-255.763-255.737c0-141.012,114.734-255.733,255.763-255.733C397.277,0.202,512,114.925,512,255.937
		C512,396.951,397.277,511.674,256.266,511.674z"/>
	<g>
		<path style="fill:#475264;" d="M149.586,267.974h50.515c11.202,0,30.437,4.858,30.437,26.38c0,11.195-8.904,24.384-20.09,24.384
			h-60.862V267.974z M311.77,166.689h90.996v30.42H311.77V166.689z M390.709,267.974h-66.898
			c2.313-18.084,15.806-30.133,33.602-30.133C374.919,237.841,387.826,250.186,390.709,267.974L390.709,267.974z M321.814,288.334
			H433.19c0-1.729,0-3.438,0-5.167c0-41.885-30.146-75.73-75.779-75.73c-45.931,0-76.077,33.842-76.077,75.73
			c0,42.188,30.146,76.03,76.077,76.03c45.634,0,67.458-26.111,74.34-60.815h-41.042c-3.732,17.78-14.354,30.412-33.298,30.412
			C338.177,328.794,323.243,311.001,321.814,288.334L321.814,288.334z M271.311,298.382c0-22.102-14.651-41.025-34.458-47.915
			c14.348-8.897,24.099-24.958,24.099-43.03c0-28.115-22.658-50.795-50.502-50.795H109.12v202.557h101.328
			C243.738,359.198,271.311,331.948,271.311,298.382L271.311,298.382z M200.101,237.841h-50.515V197.11h50.515
			c11.202,0,20.4,9.168,20.4,20.356C220.501,228.656,211.302,237.841,200.101,237.841L200.101,237.841z"/>
	</g>
</g>
<g id="Capa_1" style="display:none;">
	<g style="display:inline;">
		<g>
			<g>
				<path style="fill:#FFFFFF;" d="M363.273,0H148.728C66.719,0,0,66.719,0,148.728v214.544C0,445.281,66.719,512,148.728,512
					h214.543C445.281,512,512,445.281,512,363.273V148.728C512,66.719,445.281,0,363.273,0z M472,363.272
					C472,423.225,423.225,472,363.273,472H148.728C88.775,472,40,423.225,40,363.273V148.728C40,88.775,88.775,40,148.728,40
					h214.543C423.225,40,472,88.775,472,148.728V363.272z"/>
			</g>
		</g>
		<g>
			<g>
				<path style="fill:#FFFFFF;" d="M256,118c-76.094,0-138,61.904-138,138c0,76.094,61.906,138,138,138s138-61.906,138-138
					C394,179.906,332.094,118,256,118z M256,354c-54.037,0-98-43.965-98-98c0-54.037,43.963-98,98-98s98,43.963,98,98
					C354,310.035,310.037,354,256,354z"/>
			</g>
		</g>
		<g>
			<g>
				<circle style="fill:#FFFFFF;" cx="396" cy="116" r="20"/>
			</g>
		</g>
	</g>
</g>
</svg>
