<?xml version="1.0" encoding="iso-8859-1"?>
<!-- Generator: Adobe Illustrator 16.0.0, SVG Export Plug-In . SVG Version: 6.00 Build 0)  -->
<!DOCTYPE svg PUBLIC "-//W3C//DTD SVG 1.1//EN" "http://www.w3.org/Graphics/SVG/1.1/DTD/svg11.dtd">
<svg version="1.1" id="Layer_1" xmlns="http://www.w3.org/2000/svg" xmlns:xlink="http://www.w3.org/1999/xlink" x="0px" y="0px"
	 width="512px" height="512px" viewBox="0 0 512 512" style="enable-background:new 0 0 512 512;" xml:space="preserve">
<g id="Layer_2" style="display:none;">
	<rect y="0" style="display:inline;fill:#02EF00;stroke:#000000;stroke-miterlimit:10;" width="512" height="512"/>
</g>
<g id="Capa_1" style="display:none;">
	<g style="display:inline;">
		<g>
			<g>
				<path style="fill:#FFFFFF;" d="M363.273,0H148.728C66.719,0,0,66.719,0,148.728v214.544C0,445.281,66.719,512,148.728,512
					h214.543C445.281,512,512,445.281,512,363.273V148.728C512,66.719,445.281,0,363.273,0z M472,363.272
					C472,423.225,423.225,472,363.273,472H148.728C88.775,472,40,423.225,40,363.273V148.728C40,88.775,88.775,40,148.728,40
					h214.543C423.225,40,472,88.775,472,148.728V363.272z"/>
			</g>
		</g>
		<g>
			<g>
				<path style="fill:#FFFFFF;" d="M256,118c-76.094,0-138,61.904-138,138c0,76.094,61.906,138,138,138s138-61.906,138-138
					C394,179.906,332.094,118,256,118z M256,354c-54.037,0-98-43.965-98-98c0-54.037,43.963-98,98-98s98,43.963,98,98
					C354,310.035,310.037,354,256,354z"/>
			</g>
		</g>
		<g>
			<g>
				<circle style="fill:#FFFFFF;" cx="396" cy="116" r="20"/>
			</g>
		</g>
	</g>
</g>
<g id="Layer_3">
	<g>
		<path style="opacity:0.1;fill:#FFFFFF;enable-background:new    ;" d="M257.02,511C116.963,511,3.014,397.06,3.014,257.007
			S116.963,3.014,257.02,3.014C397.064,3.014,511,116.954,511,257.007S397.064,511,257.02,511z"/>
		<path style="fill:#475264;" d="M402.186,261.965v95.417h-55.31v-89.018c0-22.354-7.989-37.623-28.005-37.623
			c-15.28,0-24.376,10.281-28.385,20.229c-1.451,3.557-1.828,8.492-1.828,13.488v92.924h-55.335c0,0,0.751-150.775,0-166.386h55.335
			v23.573c-0.102,0.188-0.275,0.363-0.376,0.552h0.376v-0.552c7.365-11.313,20.465-27.478,49.854-27.478
			C374.907,187.093,402.186,210.864,402.186,261.965L402.186,261.965z M175.458,110.787c-18.941,0-31.314,12.426-31.314,28.744
			c0,15.971,12.027,28.758,30.587,28.758h0.35c19.314,0,31.289-12.787,31.289-28.758
			C206.02,123.213,194.395,110.787,175.458,110.787L175.458,110.787z M147.421,357.382h55.317V190.996h-55.317V357.382z"/>
	</g>
</g>
</svg>
